HIERARCHY
ROOT SimulationBone
{
	OFFSET 0.000000 0.000000 0.000000
	CHANNELS 6 Xposition Yposition Zposition Zrotation Yrotation Xrotation 
	JOINT Hips
	{
		OFFSET 0.000000 0.000000 0.000000
		CHANNELS 6 Xposition Yposition Zposition Zrotation Yrotation Xrotation 
		JOINT RightUpLeg
		{
			OFFSET 0.103461 1.857818 10.548512
			CHANNELS 3 Zrotation Yrotation Xrotation
			JOINT RightLeg
			{
				OFFSET 43.500000 -0.000019 0.000004
				CHANNELS 3 Zrotation Yrotation Xrotation
				JOINT RightFoot
				{
					OFFSET 42.372200 0.000011 0.000000
					CHANNELS 3 Zrotation Yrotation Xrotation
					JOINT RightToe
					{
						OFFSET 17.300009 0.000002 0.000004
						CHANNELS 3 Zrotation Yrotation Xrotation
						End Site
						{
							OFFSET 0.000000 0.000000 0.000000
						}
					}
				}
			}
		}
		JOINT LeftUpLeg
		{
			OFFSET 0.103461 1.857838 -10.548504
			CHANNELS 3 Zrotation Yrotation Xrotation
			JOINT LeftLeg
			{
				OFFSET 43.500042 -0.000038 0.000017
				CHANNELS 3 Zrotation Yrotation Xrotation
				JOINT LeftFoot
				{
					OFFSET 42.372253 -0.000008 0.000015
					CHANNELS 3 Zrotation Yrotation Xrotation
					JOINT LeftToe
					{
						OFFSET 17.299995 -0.000004 0.000004
						CHANNELS 3 Zrotation Yrotation Xrotation
						End Site
						{
							OFFSET 0.000000 0.000000 0.000000
						}
					}
				}
			}
		}
		JOINT Spine
		{
			OFFSET 6.901970 -2.603733 -0.000002
			CHANNELS 3 Zrotation Yrotation Xrotation
			JOINT Spine1
			{
				OFFSET 12.588097 0.000016 0.000005
				CHANNELS 3 Zrotation Yrotation Xrotation
				JOINT Spine2
				{
					OFFSET 12.343206 -0.000008 -0.000008
					CHANNELS 3 Zrotation Yrotation Xrotation
					JOINT Neck
					{
						OFFSET 25.832890 -0.000023 0.000008
						CHANNELS 3 Zrotation Yrotation Xrotation
						JOINT Head
						{
							OFFSET 11.766625 0.000019 -0.000006
							CHANNELS 3 Zrotation Yrotation Xrotation
							End Site
							{
								OFFSET 0.000000 0.000000 0.000000
							}
						}
					}
					JOINT RightShoulder
					{
						OFFSET 19.745903 -1.480385 6.000111
						CHANNELS 3 Zrotation Yrotation Xrotation
						JOINT RightArm
						{
							OFFSET 11.284122 -0.000021 -0.000025
							CHANNELS 3 Zrotation Yrotation Xrotation
							JOINT RightForeArm
							{
								OFFSET 33.000057 -0.000001 0.000032
								CHANNELS 3 Zrotation Yrotation Xrotation
								JOINT RightHand
								{
									OFFSET 25.200003 0.000023 0.000006
									CHANNELS 3 Zrotation Yrotation Xrotation
									End Site
									{
										OFFSET 0.000000 0.000000 0.000000
									}
								}
							}
						}
					}
					JOINT LeftShoulder
					{
						OFFSET 19.746098 -1.480366 -6.000072
						CHANNELS 3 Zrotation Yrotation Xrotation
						JOINT LeftArm
						{
							OFFSET 11.284136 -0.000004 -0.000006
							CHANNELS 3 Zrotation Yrotation Xrotation
							JOINT LeftForeArm
							{
								OFFSET 33.000092 0.000029 0.000002
								CHANNELS 3 Zrotation Yrotation Xrotation
								JOINT LeftHand
								{
									OFFSET 25.199776 0.000140 0.000420
									CHANNELS 3 Zrotation Yrotation Xrotation
									End Site
									{
										OFFSET 0.000000 0.000000 0.000000
									}
								}
							}
						}
					}
				}
			}
		}
	}
}
MOTION
Frames: 13
Frame Time: 0.033333
-57.968343 0.000000 467.887345 0.000000 169.299442 0.000000 -3.756784 89.479874 2.543331 90.020341 4.519184 -173.546517 152.031405 -9.912796 -178.863011 -19.292904 -1.195189 -0.327194 74.399147 -2.142905 -8.102574 21.454558 0.003108 0.000018 -171.500354 -1.208801 179.506032 -29.362614 3.123069 -3.366879 78.602923 1.519220 -2.769414 21.454555 -0.003092 0.000000 9.507383 0.408963 -0.172353 9.001007 0.830124 -0.312391 8.682869 0.828085 -0.317406 25.064289 -1.142474 -2.333356 -19.214179 9.622014 -6.172812 177.312380 -78.333937 1.259372 -8.103816 51.477852 -8.592784 -71.014884 -21.282267 3.014955 0.790246 -7.596830 76.636888 -153.265948 85.306392 28.561285 -22.088121 -56.007900 -28.567743 -105.320301 -0.152090 -2.974338 -17.928698 -14.614204 7.332841 
-62.055869 0.000000 468.815708 0.000000 170.714233 0.000000 -2.620316 88.461960 2.285774 91.462650 2.948538 -175.029731 151.977624 -7.663605 179.051305 -28.042641 -0.160257 0.843744 71.910042 -2.193097 -4.972092 21.454558 0.003108 0.000017 -168.149176 0.970703 179.275855 -32.217791 3.015043 -3.370616 77.631602 1.655444 -2.218610 21.454555 -0.003092 0.000000 9.484105 0.021744 -0.239851 8.955241 0.062023 -0.477292 8.637129 0.059004 -0.477664 25.061986 -1.649684 -2.751090 -18.681742 10.377637 -6.825582 177.688095 -77.662406 0.891546 -5.642128 51.473873 -5.392304 -70.531511 -21.243476 2.991333 4.501983 -5.516931 80.284250 -149.847807 85.154065 32.008432 -21.259882 -56.033400 -29.055058 -105.074394 -0.137698 -2.964544 -18.115588 -14.483251 8.001148 
-66.140378 0.000000 469.539173 0.000000 172.022013 0.000000 -1.491361 87.596153 1.885505 92.986876 2.038491 -176.351121 152.213511 -6.440004 175.099016 -37.505057 1.576666 2.586066 77.713824 -2.416946 -2.104706 21.454558 0.003108 0.000017 -167.381244 2.793594 -178.956256 -39.111944 1.941410 -4.442625 74.167925 2.994516 -0.195460 21.454555 -0.003092 0.000000 9.493619 -0.258923 -0.182711 8.975345 -0.502842 -0.384938 8.657242 -0.505294 -0.381902 25.300926 -1.933362 -3.310200 -18.260203 10.905239 -7.560892 178.502582 -76.737879 0.080554 -5.565242 50.667907 -2.812507 -68.104731 -21.974100 2.940565 7.238418 -3.962219 83.186411 -147.636301 84.697290 34.250971 -20.267164 -56.496883 -29.436418 -104.513014 -0.031821 -2.947229 -18.062498 -14.360384 8.101911 
-70.220642 0.000000 470.070706 0.000000 173.222179 0.000000 -0.625627 87.254227 1.515731 94.113430 1.854042 -178.009633 154.413474 -6.395599 171.929604 -42.514512 2.592215 3.733350 82.858924 -2.811015 -0.729717 21.454557 0.003109 0.000017 -169.115375 4.503297 -176.682241 -48.073945 0.108836 -5.452123 69.187521 6.038578 6.115520 21.454553 -0.003092 0.000000 9.482886 -0.428717 0.050823 8.952891 -0.860011 0.068347 8.634782 -0.859720 0.073533 25.426831 -1.742304 -3.796669 -17.546560 10.888740 -8.010718 179.587202 -76.095862 -1.014404 -7.770371 49.722363 -0.800910 -63.219445 -23.226839 2.827651 8.176745 -3.027929 81.964053 -148.951194 84.052813 32.945513 -19.210426 -57.181763 -29.719533 -103.780606 0.131910 -2.926392 -17.745001 -14.335039 7.416104 
-74.295434 0.000000 470.423274 0.000000 174.315240 0.000000 -0.169926 87.715973 1.221105 94.671492 1.788478 -179.852240 157.874318 -6.307204 170.670103 -43.583157 2.243478 3.742105 85.712959 -2.669693 -0.241306 21.454562 0.003109 0.000018 -172.549717 5.299393 -174.795182 -56.640061 -1.855671 -4.460306 66.644082 6.321884 8.137491 21.454551 -0.003092 0.000000 9.354393 -0.545349 0.249411 8.694132 -1.107809 0.457192 8.375984 -1.105165 0.463868 26.045881 -1.684732 -4.010480 -16.236893 10.623702 -7.999911 -179.287917 -75.569070 -2.154845 -10.292924 48.894828 1.859036 -56.261337 -24.153588 2.620468 7.493291 -2.703707 74.249764 -151.673435 83.861479 30.204025 -18.410121 -57.988320 -30.177121 -103.241806 0.257249 -2.911367 -17.437813 -14.475546 6.466839 
-78.363523 0.000000 470.609843 0.000000 175.302654 0.000000 0.010756 88.662758 1.002036 95.004760 1.777888 178.693592 161.727528 -5.853302 170.926181 -42.668062 1.422991 3.192291 86.482660 -2.267219 -0.276695 21.454555 0.003108 0.000017 -176.658895 5.741591 -173.385622 -63.424187 -2.365931 -3.673729 67.700022 5.176167 6.765938 21.454551 -0.003092 -0.000001 9.193167 -0.596816 0.254516 8.371530 -1.210393 0.465254 8.053360 -1.207698 0.472550 26.845977 -1.778635 -3.914630 -14.312065 10.325419 -7.575283 -179.144387 -75.104992 -2.293709 -12.251925 48.193425 5.391126 -48.113072 -24.007039 2.322008 6.186277 -3.088842 61.335802 -152.975228 83.923812 28.888452 -18.731206 -58.355272 -30.210261 -103.051107 0.301245 -2.906013 -17.397289 -14.699658 5.999514 
-82.423681 0.000000 470.643379 0.000000 176.186685 0.000000 -0.093190 89.627380 0.866582 95.251837 1.550372 177.627033 165.481222 -5.046097 171.149173 -40.998487 1.029418 2.724313 86.254108 -2.009719 -0.644869 21.454560 0.003108 0.000017 179.193346 6.197098 -172.289568 -67.045943 -1.635112 -3.720309 70.421313 4.810230 6.219881 21.454550 -0.003092 -0.000001 9.061825 -0.660894 0.103670 8.110405 -1.327349 0.160835 7.792199 -1.326488 0.168845 27.662758 -1.725386 -3.580540 -12.283019 9.937747 -6.881334 179.922400 -74.709292 -1.331244 -14.016114 47.600142 9.195584 -39.764822 -22.509141 1.969480 5.416410 -3.855365 47.408579 -152.214126 83.940744 29.656073 -19.990024 -58.086695 -29.548867 -103.072001 0.301237 -2.906934 -17.545069 -14.935284 6.001293 
-86.474679 0.000000 470.536847 0.000000 176.970257 0.000000 -0.247750 90.648712 0.762800 95.411725 1.513582 176.891450 169.350811 -4.545304 170.787022 -38.607504 1.062939 2.800543 85.417431 -2.157401 -1.064270 21.454557 0.003108 0.000017 175.099030 6.290100 -171.095583 -67.707945 -0.211048 -3.632720 71.361892 4.443757 5.607696 21.454562 -0.003090 -0.000001 8.955852 -0.661424 -0.102003 7.900803 -1.314284 -0.248870 7.582611 -1.315900 -0.240934 28.602034 -1.366409 -3.079714 -10.674650 9.333483 -6.030161 178.602016 -74.441795 0.026392 -16.018308 47.447200 12.286042 -32.297731 -20.032228 1.625342 5.961855 -3.629653 36.119707 -150.846394 83.905097 31.037544 -21.321358 -57.507877 -28.583042 -103.180888 0.297291 -2.911461 -17.638839 -15.259211 5.861983 
-90.515289 0.000000 470.303215 0.000000 177.656835 0.000000 -0.465782 91.457283 0.640084 95.433628 1.129559 176.096526 172.949105 -3.901001 170.322187 -36.273584 0.997109 3.038299 84.257398 -2.431753 -1.501503 21.454560 0.003108 0.000017 171.319326 6.395706 -170.045769 -65.165851 1.480459 -3.321017 74.464266 3.692931 4.625289 21.454560 -0.003093 -0.000002 8.849973 -0.722192 -0.292906 7.691637 -1.423289 -0.633122 7.373448 -1.427222 -0.624518 29.678743 -0.850176 -2.489469 -9.668683 8.601206 -5.139080 177.301507 -74.331187 1.361021 -17.914849 48.004362 14.050044 -26.749784 -17.676678 1.366681 7.734808 -0.958716 28.899278 -149.667149 83.893916 32.227974 -22.221095 -56.864784 -27.889845 -103.444287 0.273971 -2.921452 -17.608219 -15.703271 5.358324 
-94.544282 0.000000 469.955448 0.000000 178.250315 0.000000 -0.637902 91.964867 0.488245 95.373280 0.598034 175.300139 176.301157 -3.245194 170.454816 -34.281816 0.549920 3.107858 83.352077 -2.609947 -2.065974 21.454557 0.003108 0.000018 168.072787 6.409698 -169.216448 -59.876683 3.086044 -2.948811 77.488974 2.922169 3.452276 21.454557 -0.003092 0.000001 8.754207 -0.801347 -0.457638 7.502899 -1.571331 -0.966245 7.184727 -1.577274 -0.956742 30.623874 -0.410658 -1.902752 -9.090283 7.948558 -4.321266 176.117398 -74.350366 2.573505 -19.103651 49.334876 14.598804 -23.799731 -16.561559 1.248257 10.064419 3.713474 25.906675 -148.607281 83.917528 33.296766 -22.718135 -56.279577 -27.680296 -103.912401 0.212520 -2.937804 -17.535920 -16.069589 4.816240 
-98.560430 0.000000 469.506513 0.000000 178.754929 0.000000 -0.715597 92.071411 0.316326 95.269771 0.063412 174.554624 179.395069 -2.687500 171.144501 -32.879998 -0.156198 2.972259 83.116012 -2.654676 -2.765320 21.454557 0.003108 0.000017 165.481864 5.597108 -168.443011 -51.955022 3.576623 -1.797336 79.902831 1.808539 2.684431 21.454550 -0.003092 -0.000001 8.681409 -0.859987 -0.584257 7.359711 -1.681093 -1.222024 7.041564 -1.688579 -1.211854 31.195684 -0.215808 -1.432872 -8.790914 7.431978 -3.668851 175.439788 -74.375938 3.266866 -19.355301 51.114574 14.621948 -23.587206 -16.790914 1.259582 12.060795 8.109349 26.524999 -147.212543 83.949063 34.703122 -22.965435 -55.816094 -27.870633 -104.413594 0.138767 -2.954734 -17.475348 -16.123493 4.529545 
-102.562503 0.000000 468.969376 0.000000 179.175171 0.000000 -0.634068 91.782806 0.166508 95.166458 -0.666910 174.023324 -177.450541 -1.978393 172.156598 -31.521794 -0.924104 2.734240 83.398741 -2.568997 -3.292605 21.454563 0.003109 0.000018 163.757078 4.817400 -167.977684 -41.715934 3.055267 -0.740898 80.506982 1.087048 2.783531 21.454555 -0.003094 -0.000002 8.620290 -0.927689 -0.695816 7.240069 -1.810066 -1.448341 6.921902 -1.818917 -1.437388 31.396809 -0.221485 -1.124252 -8.625615 6.992089 -3.198051 175.472204 -74.277208 3.236182 -18.729770 52.765103 15.121217 -25.572501 -17.518614 1.336749 12.687403 10.224908 28.668220 -145.382311 83.949514 36.549746 -22.953718 -55.597006 -28.347884 -104.698303 0.096127 -2.964283 -17.432678 -15.883999 4.509828 
-106.549273 0.000000 468.357002 0.000000 179.515730 0.000000 -0.315970 91.201607 0.024987 95.086571 -1.521235 174.022699 -174.013399 -1.110000 173.382098 -29.843098 -1.525084 2.354219 83.920711 -2.299114 -3.465367 21.454558 0.003108 0.000018 163.146035 3.915602 -168.325668 -29.483659 2.359068 1.213848 80.861319 -0.520055 1.765873 21.454550 -0.003095 -0.000000 8.550403 -0.981869 -0.825955 7.103224 -1.911253 -1.710695 6.785102 -1.921686 -1.699129 31.438978 -0.234162 -0.977033 -8.525495 6.571490 -2.910525 175.764099 -74.084678 2.942034 -17.374024 53.978066 16.863705 -28.775119 -18.114452 1.431243 11.637032 9.654349 29.706750 -143.319471 83.845210 38.634822 -22.533072 -55.715612 -29.045984 -104.710604 0.087999 -2.966507 -17.396430 -15.629445 4.640606 
